<!--?xml version="1.0" standalone="no"?-->
              <svg id="sw-js-blob-svg" viewBox="0 0 100 100" xmlns="http://www.w3.org/2000/svg" version="1.1">
                    <defs> 
                        <linearGradient id="sw-gradient" x1="0" x2="1" y1="1" y2="0">
                            <stop id="stop1" stop-color="rgba(95, 82, 230, 1)" offset="0%"></stop>
                            <stop id="stop2" stop-color="rgba(244.826, 244.826, 244.826, 1)" offset="100%"></stop>
                        </linearGradient>
                    </defs>
                <path fill="url(#sw-gradient)" d="M15.8,-26.5C21,-24.4,26.1,-21.2,30.6,-16.6C35,-12,38.8,-6,38,-0.5C37.1,5,31.6,10,27.4,15.2C23.3,20.3,20.6,25.6,16.3,28.8C11.9,32,6,33,0.3,32.5C-5.4,32,-10.8,30.1,-17.8,28.4C-24.7,26.8,-33.2,25.4,-37.1,20.7C-41,16,-40.4,8,-38.9,0.8C-37.4,-6.3,-35.2,-12.7,-30.1,-15.4C-25.1,-18.2,-17.3,-17.3,-11.8,-19.3C-6.3,-21.2,-3.2,-25.9,1.1,-27.8C5.3,-29.6,10.6,-28.6,15.8,-26.5Z" width="100%" height="100%" transform="translate(50 50)" stroke-width="0" style="transition: all 0.3s ease 0s;"></path>
              </svg>